<svg xmlns="http://www.w3.org/2000/svg" width="628" height="359"><path fill="none" d="M0 0h628v359H0z"/><path fill="#ec7b39" d="M257 160c2.575 1.414 3.94 2.79 6 5v4l-3.187 1.125c-4.223 1.799-6.177 4.153-8.813 7.875-1.356 4.068-1.541 7.746-1 12 1.092 2.618 2.391 4.637 4 7 5.834-1.535 11.364-4.122 16-8 1.411-2.822 1.67-4.807 2-8h3l.625-2.062c2.823-6.032 7.429-10.904 13.375-13.938 5.321-.788 8.779.522 13.398 2.93C304 169 304 169 305 171c.456 6.842-.759 10.593-4.562 16.375-.475.536-.95 1.072-1.438 1.625h-2l-.727 1.746c-1.526 2.702-3.301 4.294-5.648 6.316l-2.336 2.036C282.39 204 282.39 204 280 204l2 13c8.741 0 13.353-3.62 20-9a519 519 0 0 1 4-3l1 1 4-4c-1.444 4.613-4.099 7.635-7.375 11.063l-1.46 1.564A509 509 0 0 1 298 219l-2.102 2.246c-2.934 2.711-4.828 3.686-8.851 3.941-6.464-.367-11.591-.908-16.606-5.242-2.215-2.99-2.562-5.963-3.011-9.597-.59-3.22-2.15-5.068-4.43-7.348h4l-1-5-2.875 2C260 202 260 202 258 202l1.5 3.063c2.635 7.085 2.604 15.356.844 22.66-2.176 5.466-5.734 9.657-10.344 13.277-2.875 1.375-2.875 1.375-5 2l-1 1c-5.496.343-10.751-.268-16-2l-2-2c-.195-2.82-.195-2.82-.125-6.125l.055-3.32L226 228l-3 2 6-12 5 1 .707-1.723c2.091-3.683 5.359-6.158 8.492-8.96 2.056-2.145 2.056-2.145 1.758-4.723-1.115-3.022-2.457-5.805-3.957-8.656-3.726-7.103-4.853-12.894-4-20.938 1.04-2.735 2.283-4.576 4-7l2-3h3v-2c3.672-2.35 6.712-2.518 11-2"/><path fill="#d14218" d="m534 158 1 3-1 2 3.188-1.562c2.53-1.08 3.751-1.44 6.562-1.313 2.555.994 3.596 1.694 5.25 3.875a201 201 0 0 1 3 6l1 1c.072 1.686.084 3.375.063 5.063l-.028 2.785L553 181l1.797-.992c2.827-1.293 5.13-1.148 8.203-1.008v2l-1.898.918c-5.177 2.516-5.177 2.516-8.664 6.894L552 191h-2a647 647 0 0 0-1.5 4.75l-.844 2.672c-.82 2.78-.82 2.78-.656 6.578l-3 2c-1.127 2.026-2.015 4.097-2.937 6.223L540 215l-3 1c-.733 2.015-.733 2.015-1 4l-7 2-2.125-2.187a82 82 0 0 0-6-5.438c-2.097-1.732-3.984-3.44-5.875-5.375l-1.941 2.188-2.621 2.812-2.567 2.813C505 219 505 219 501.332 219.422 498 219 498 219 495.25 217.25c-3.944-5.697-4.944-12.191-5.625-19 .39-3.375 1.238-5.971 2.523-9.09.914-2.317 1.607-4.64 2.29-7.035 2.01-6.82 4.063-13.527 8.562-19.125 3.445.295 5.055 1.04 7.875 3.125 2.125 2.875 2.125 2.875 2.25 6-.706 3.146-2.032 5.86-3.437 8.75-4.481 9.377-6.346 19.873-7.688 30.125a592 592 0 0 0 3.375-2.812l1.898-1.583c1.95-1.687 1.95-1.687 3.727-4.605.054-2.284.054-2.284-.187-4.75-.13-4.687-.13-4.687 1.292-7.215a202 202 0 0 1 2.79-3.37c1.813-2.73 1.291-5.502 1.105-8.665 2-2 2-2 6-3l2-12h3v-3z"/><path fill="#c64220" d="M492 116c4.584.882 8.616 2.616 11.938 5.938C505 124 505 124 504.68 125.828c-1.684 5.38-3.68 10.579-6.68 15.36-2.88 4.713-3.858 10.272-5.168 15.582C492 160 492 160 491 162c-2.062.625-2.062.625-4 1l-.375 3.438L486 170l-2 1c-.429 2.093-.429 2.093-.562 4.5A105 105 0 0 1 483 180l-1 1c-.04 2-.043 4 0 6h-2l-1 18h1l-.062 3.938c.015 3.34.08 6.666.312 10l.14 2.214L481 223c1.97 1.293 1.97 1.293 4 2v3h-5v-2l-2.812-.062L474 225c-3.284-6.002-4.125-11.507-4.562-18.25l-.254-3.828L469 200l-1 4h-2l-.125 2.438c-1.205 4.904-3.725 8.645-6.875 12.562-3 2-3 2-6.875 1.938-3.241-.513-4.258-1.04-7-3.125-2.21-2.925-3.187-5.294-4.125-8.813l-1-2c-.586-5.628.765-9.436 2.996-14.59 1.13-2.556 1.13-2.556 1.942-5.972 2.394-7.748 6.665-15.02 13.312-19.75 4.093-2.161 7.166-2.206 11.75-1.688 3 1.5 3 1.5 5 3l-.125-2.312C475 163 475 163 477 160c.626-2.113 1.203-4.24 1.75-6.375 1.393-5.084 3.042-9.562 5.375-14.312 2.432-4.998 3.664-9.442 4.441-14.922.587-3.232 1.765-5.584 3.434-8.391"/><path fill="#e56425" d="M368 115h3v2l2 1c3.439 5.214 6.131 10.757 7 17-.52 2.96-1.34 4.398-3 7-3.62 1.206-6.192 1.323-10 1-3.437-1.687-3.437-1.687-6-4-.625-2.437-.625-2.437 0-5l2-2.437c2.3-2.46 2.3-2.46 2.25-5.875L365 123c-7.172.266-12.284 2.665-18 7-.53.726-1.06 1.451-1.605 2.2L344 134h-3l-.812 1.75C339 138 339 138 337.5 139.813c-3.848 5.61-3.996 12.596-4.5 19.187h2l.063 2.063c1.406 4.406 4.568 6.885 7.937 9.937l-3 2c-.363 1.977-.363 1.977-.187 4.125L340 181h2v2h-4v-2l-1.875-.375C334 180 334 180 332 178h-2v-5h-4v-3l-2.25-.812c-4.634-2.002-4.634-2.002-6.75-4.188-1.235-2.937-2.13-5.938-3-9l-1-3a99 99 0 0 1-.062-5.187l.027-2.731L313 143l3-1-2-6h5l1-3a139 139 0 0 1 5-5l1.43-1.598c5.984-6.535 14.308-12.456 22.882-14.965 7.182-.851 12.19.632 18.688 3.563"/><path fill="#cf4e28" d="M409 165c2.967.33 4.32 1.24 6.75 3.063 2.332 3.044 2.569 3.647 2.563 7.25L418 179h-2l-.375 2.543c-.664 3.672-1.61 7.179-2.625 10.77-1.539 5.567-2.595 10.92-3 16.687 11.412-11.983 17.43-28.073 24-43 2.938.375 2.938.375 6 1 1.294 2.588 1.168 4.55 1.188 7.438l.042 2.933C441 180 441 180 439 183c-1.086 3.656-1.823 7.397-2.625 11.125l-.695 3.055c-1.322 6.073-2.023 11.604-1.68 17.82l1 1c.04 1.666.043 3.334 0 5-5.957-.39-5.957-.39-8-1-2.935-2.935-3.564-5.718-4.187-9.75l-.481-2.984L422 205l-1.137 2.012c-5.877 10.141-5.877 10.141-9.863 12.988-2.803.393-5.147.242-8 0l-.25-1.812c-.96-2.799-2.39-3.492-4.75-5.188l-1-3-3 4v-6l-3 2c.906-2.997 1.777-5.643 3.442-8.307 1.724-2.98 2.681-5.802 3.68-9.095.377-1.22.756-2.44 1.146-3.698a2887 2887 0 0 0 2.328-7.664l1.15-3.7 1.021-3.364c1.368-3.52 3.04-6.115 5.233-9.172"/><path fill="#e46731" d="M296 165c2.827 1.08 5.48 2.316 8 4 1.598 3.197 1.37 6.522 1 10-1.5 3.714-3.339 6.992-6 10h-2l-.727 1.746c-1.526 2.702-3.301 4.294-5.648 6.316l-2.336 2.036C282.39 204 282.39 204 280 204l2 13c8.741 0 13.353-3.62 20-9a519 519 0 0 1 4-3l1 1 4-4c-1.444 4.613-4.099 7.635-7.375 11.063l-1.46 1.564A509 509 0 0 1 298 219l-2.102 2.246c-2.934 2.711-4.828 3.686-8.851 3.941-6.464-.367-11.591-.908-16.606-5.242-2.215-2.99-2.562-5.963-3.011-9.597-.59-3.22-2.15-5.068-4.43-7.348l4-1 .367-2.012c.866-4.564 1.842-8.69 3.633-12.988.376-1.992.72-3.992 1-6h3l.625-2.062c3.848-8.222 10.798-15.259 20.375-13.938"/><path fill="#b12f16" d="M409 165c2.967.33 4.32 1.24 6.75 3.063 2.332 3.044 2.569 3.647 2.563 7.25L418 179h-2l-.375 2.543c-.664 3.672-1.61 7.179-2.625 10.77-1.539 5.567-2.595 10.92-3 16.687l6-7 2 1q-1.426 2.007-2.875 4l-1.617 2.25L412 211h-2c-.167 2.917-.167 2.917 0 6l2 2-1 1c-2.67.141-5.324.042-8 0l-.25-1.812c-.96-2.799-2.39-3.492-4.75-5.188l-1-3-3 4v-6l-3 2c.906-2.997 1.777-5.643 3.442-8.307 1.724-2.98 2.681-5.802 3.68-9.095.377-1.22.756-2.44 1.146-3.698a2887 2887 0 0 0 2.328-7.664l1.15-3.7 1.021-3.364c1.368-3.52 3.04-6.115 5.233-9.172"/><path fill="#f5cebb" d="m536 182 1.625 1.375c2.692 1.842 5.26 2.705 8.375 3.625-4.079 12.194-4.079 12.194-8 17l-3 1a89 89 0 0 0-2 5l-2 2h-4c-.934-3.01-1.044-3.867 0-7l-.062-2.312c.074-3.214 1.011-5.659 2.062-8.688.37-1.994.713-3.993 1-6l6-1z"/><path fill="#f6e9e2" d="M468 173c2.125.375 2.125.375 4 1-1.807 12.899-8.27 27.289-17 37h-2c-.477-11.682 3.155-23.186 10.188-32.625A64 64 0 0 1 468 173"/><path fill="#ef9a5d" d="m241 126 2 1c.836 7.17-.369 13.105-2.75 19.813l-.764 2.171c-1.66 4.45-3.757 8.1-6.486 12.016a131 131 0 0 0-2.312 4.75c-3.252 6.654-7.267 13.141-12.688 18.25l1-5h-2c1.386-2.87 2.923-5.57 4.61-8.273C229.276 158.3 236.192 146.503 239 132q.99-2.005 2-4z"/><path fill="#f8ecc7" d="M239 129c.555 17.699-10.368 33.012-20 47-1.21-3.632-.628-5.065.438-8.687l.87-3.012L221 162h2l.328-2.547c.734-3.772 1.963-7.168 3.422-10.703l.808-1.98C234.906 129 234.906 129 239 129"/><path fill="#f8f0e0" d="M249 212c.442 5.998.355 10.867-2.656 16.18-3.061 4.146-7.096 6.988-11.344 9.82h-4c.829-9.469 6.393-16.55 12.875-23.25C246.69 212 246.69 212 249 212"/><path fill="#e4a666" d="m142 167 3 2-2 1h3c-2.002 4.535-4.989 7.177-9 10-3.437 1.375-3.437 1.375-6 2l-1-2-2-1 6.438-5.437 1.853-1.565c2.925-2.42 2.925-2.42 5.709-4.998m-25 9h1l-1 7h13c-2.164 2.568-4.335 4.945-7 7-4.074.078-5.611-.74-9-3 .468-4.056.88-7.466 3-11"/><path fill="#f38d61" d="m534 158 1 3-1 2 3.25-1.562c2.465-1.07 3.471-1.474 6.188-1.125L545 161v2l-2.379.184c-5.575.444-11.097.937-16.621 1.816l.105 2.047.082 2.703.106 2.672c-.35 3.083-1.153 4.363-3.293 6.578l-3 1v8l-5 2-.148 2.117-.227 2.758-.21 2.742C514 200 514 200 512 202c-1.348-7.786-1.348-7.786 0-11l2.063-2.812c2.276-3.745 2.102-5.893 1.937-10.188 2-2 2-2 6-3l2-12h3v-3z"/><path fill="#de613a" d="m344 187 1 2h2c4.502 16.08 4.502 16.08 1.898 22.875-3.217 6.882-7.21 14.557-14.109 18.336L333 231l-2-2 2.625-1c5.716-3.387 8.92-8.34 11.25-14.5L346 210l-3-1c.875-3.875.875-3.875 2-5a59 59 0 0 0 .063-4.062L345 196l-2 2v-2h-2z"/><path fill="#b12d15" d="M511 144c4.053-.345 5.548-.302 9 2 .688 2.625.688 2.625 1 5-5.14 4.773-5.14 4.773-9.312 5.875L509 157l-1-1c.038-1.649.155-3.296.313-4.937l.238-2.715C509 146 509 146 511 144"/><path fill="#e48162" d="M335 193c-3.104 5.302-6.97 9.433-12 13-2.25.7-2.25.7-4 1-1-3-1-3-.5-5.375 2.073-3.628 4.919-5.551 8.5-7.625 2.928-.976 4.956-1.082 8-1"/><path fill="#f3cd79" d="m158 173 2 1-1 1 1.934.586 2.504.789 2.496.773L168 178l1 2-9-1-2.05 5.957c-1.017 2.188-2.158 3.452-3.95 5.043l-1-7a78 78 0 0 0-5 2l-1 2v-4l1.938-.312L151 182l1-3h2l.875-1.875C156 175 156 175 158 173"/><path fill="#edc563" d="M103 170h1c.392 1.412.763 2.83 1.125 4.25l.633 2.39c.285 2.78-.308 4.019-1.758 6.36h2v-2l7-1-2.25 1.75c-3.368 2.756-6.114 5.156-8.312 8.938C101 193 101 193 98 194c-2.187-.437-2.187-.437-4-1v-1h6l-.07-2.266-.055-2.984-.07-2.953c.2-2.873.83-4.316 2.195-6.797.387-2.325.73-4.659 1-7"/><path fill="#f6ede4" d="M297 173c.766 2.257 1.125 3.58.434 5.895-3.25 6.258-6.8 12.16-13.434 15.105.866-7.83 5.477-13.633 10.938-19.125z"/><path fill="#e7c5ba" d="M318 201c1 3 1 3 1 5l2 2-2 1-.898 2.262c-1.202 2.987-2.712 5.05-4.727 7.55l-1.914 2.395L310 223v-3l-4 4c.519-4.172 1.712-6.254 4.563-9.312l1.94-2.114L314 211l-2-3 1.875-1.812c2.262-2.196 2.262-2.196 4.125-5.188"/><path fill="#f3cd55" d="M117 176h1l-1 7h13c-2.164 2.568-4.335 4.945-7 7-4.074.078-5.611-.74-9-3 .468-4.056.88-7.466 3-11m14 3 3 2-4 1z"/><path fill="#f0a088" d="M519.813 139.313 522 140l-1 4c-3.38 1.04-6.478 1.08-10 1l-3 9-1-2h-2v-4h2l-1-7 6-1v2l2.188-1.562C517 139 517 139 519.813 139.313"/><path fill="#e79e28" d="M114 138c3.44.34 5.58 1.971 8.25 4.063l2.14 1.66L126 145a109 109 0 0 1-1 7l-2 1 .375-3.75c.077-2.19.077-2.19-.375-4.25-2.629-2.642-2.629-2.642-6-4h-4l-.316 3.348c-.652 5.199-2.098 10.088-3.621 15.09l-.803 2.755-.787 2.616-.711 2.368L106 169l-2 1c1.483-7.714 3.246-15.247 5.563-22.75l.635-2.094c.94-2.968 1.569-4.923 3.802-7.156"/><path fill="#e88a34" d="M186 176c2.387-.094 2.387-.094 5 0 1.813 1.5 1.813 1.5 3 4 .239 2.72.137 5.258 0 8h-1l-.437-3.312c-.446-3.62-.446-3.62-1.563-6.688h-3l-.75 1.938c-1.343 3.289-2.78 6.526-4.23 9.769A630 630 0 0 0 179 199h-2c-1.625 1.458-1.625 1.458-3 3v-5l1.91-.223L178 196c.969-1.979.969-1.979 1.438-4.437 1.459-5.618 3.82-10.469 6.562-15.563"/><path fill="#e8ad63" d="M100 209h1c-.55 5.233-1.44 9.953-3 15a868 868 0 0 0-1.125 3.938L96 231l-4 1c-.485-6.945 1.307-13.299 3-20 .91 3.073 1.089 5.801 1 9l.367-2.117.508-2.758.492-2.742C98 211 98 211 100 209"/><path fill="#f5e4db" d="M544 169c1.938.563 1.938.563 4 2 .927 3.575 1.404 5.95.063 9.438L547 182c-2.437-.375-2.437-.375-5-1-1.405-2.81-1.249-4.888-1-8 1.5-2.375 1.5-2.375 3-4"/><path fill="#f5b68a" d="M336 140h1v7l2-1c-1.824 5.731-1.824 5.731-3.312 8l-.688 2c1.317 3.133 1.317 3.133 3 6v2h2v3h2l-1 3a202 202 0 0 1-3.562-3.25l-2.004-1.828L334 163c.285-2.234.285-2.234 1-4h-2c-.393-6.977.369-12.517 3-19"/><path fill="#f1d832" d="M112 130v2a85 85 0 0 1-4.875 3c-8.513 5.273-15.766 11.885-20.125 21l-2-2c1.392-4.428 3.52-6.956 7-10h2l1-3a122 122 0 0 1 6.438-5.125l1.814-1.379C109.209 130 109.209 130 112 130"/><path fill="#ecb68f" d="M384 182c1.543 3.086.38 5.945-.312 9.188l-.801 3.917c-.844 3.707-1.69 7.288-2.887 10.895l-2 1c-.421-7.92.09-15.538 3-23z"/><path fill="#f3d749" d="M130 114c-2.969 2.5-5.356 3.529-9.125 4.375-5.05 1.26-9.26 3.18-13.781 5.734L105 125l-3-1c8.515-5.073 17.849-10.483 28-10m-31 11 3 1-5 2zm-4 3 2 1-4 2z"/><path fill="#eb7f34" d="m227 164 1 3c-.812 1.813-.812 1.813-2 4l-.812 2.813c-1.492 4.004-3.606 6.79-6.188 10.187l-1-2 1-3h-2c1.528-3.151 3.219-6.173 5-9.187l1.563-2.668C225 165 225 165 227 164"/><path fill="#d37861" d="m342 233 2 1-1 4c3.796-.542 5.472-2.201 8-5-.939 3.989-2.727 5.828-5.875 8.25-2.628 1.938-4.832 3.392-8.125 3.75l-2-2 3-6h2v-3z"/><path fill="#a32519" d="M348 199c2 2 2 2 2.5 5.375-.217 7.949-5.148 15.337-10.125 21.25-2.26 2.515-4.278 4.01-7.375 5.375l-2-2 2.625-1c5.422-3.213 8.463-7.678 10.75-13.5L345 212h2z"/><path fill="#e48b30" d="M163 199h2l-.586 1.766c-2.12 6.673-3.403 13.311-4.414 20.234l6-7c0 3.606-.817 4.413-3 7.188l-1.687 2.167L160 225c-2-1-2-1-3-2 .456-5.804 1.74-10.989 3.563-16.5l.708-2.203q.857-2.651 1.729-5.297"/><path fill="#b63f22" d="m378 152 2 1-18 9v1l10 1-3 3a367 367 0 0 1-5.437-1.312l-3.06-.739L358 164l-1-3c3.453-1.533 6.913-3.05 10.375-4.562l2.984-1.327 2.852-1.24 2.634-1.158z"/><path fill="#eaaf99" d="m482 180 1 2-1 2 3-1c-.779 10.558-.779 10.558-3 15l-3-1q.21-2.47.438-4.937c.08-.917.162-1.834.246-2.778C480 187 480 187 481 186v-5z"/><path fill="#ebb470" d="M205 175c1.737 2.657 2.008 3.896 1.75 7.125C206 185 206 185 204 187c-.09 2.046-.09 2.046.125 4.313.107 3.682-.008 4.508-2.125 7.75L200 201c-.253-6.069.302-11.162 2-17h2l-.062-3.375C204 177 204 177 205 175"/><path fill="#db8369" d="m320 243 5 1v2l1.688-1c2.615-1.131 4.493-1.157 7.312-1v2l-12 3h5l-1 2c-3.375.125-3.375.125-7 0l-2-2 3-1v-2l-2-1h2z"/><path fill="#e8a865" d="M103 221h1l-.035 2.52-.028 3.292-.035 3.27c-.038 2.983-.038 2.983 1.098 5.918l-2 1c-.652 2.025-.652 2.025-1 4h2v12h-1c-2.678-10.042-2.487-19.757-1-30z"/><path fill="#efcb8c" d="M111 205c.74 2.235 1.096 3.62.512 5.93l-.825 1.945-.851 2.086L109 217a492 492 0 0 0-2 6l-3-2c-.556-4 .374-7.341 2-11 2.063-1.187 2.063-1.187 4-2z"/><path fill="#df9684" d="M487 162c1.168 3.505.929 5.892.625 9.563l-.273 3.503C487 178 487 178 486 180h-3c-1.134-2.948-.965-4.122-.062-7.25L484 170h2l-.625-2.312L485 165z"/><path fill="#f5af8d" d="m518 176 2 1-1 1c-.243 2.549-.384 5.096-.523 7.652L518 188l-3 2c-.508 2.36-.508 2.36-.562 5-.13 2.688-.13 2.688-.438 5l-2 2c-1.348-7.786-1.348-7.786 0-11l2.063-2.812c2.276-3.745 2.102-5.893 1.937-10.188z"/><path fill="#edc391" d="m241 126 2 1c1.195 10.249-2.317 18.65-6 28-1.14-3.841-.563-5.302 1-9 .595-2.69 1.138-5.354 1.625-8.062l.406-2.143c.616-3.346.969-6.38.969-9.795"/><path fill="#f4b39b" d="m418 213 1 2a269 269 0 0 1-3.25 4l-1.828 2.25L412 223h-4v-1l-2.875-.187L402 221c-1.375-2.562-1.375-2.562-2-5h3v4c7.22-.793 7.22-.793 13.125-4.625z"/><path fill="#e28d73" d="m362 214 2 2c-.318 3.66-.842 6.979-3 10q-2.495 1.01-5 2c-2.772 2.52-2.772 2.52-5 5 1.258-3.483 2.757-6.074 5-9l1-3h4z"/><path fill="#d76c20" d="M92 185c2.625-.125 2.625-.125 5 0l-3 7-2-1c.184 2.94.184 2.94 1 6 1.952 1.436 1.952 1.436 4 2l-1 3v-2l-1.812-.187C92 199 92 199 90.188 196.875 88.65 193.154 89.05 190.868 90 187z"/><path fill="#eab192" d="M410 144h10v5l-2 2c-3.125.125-3.125.125-6 0v-6z"/><path fill="#e66b14" d="m113 180-2.25 1.75c-3.368 2.756-6.114 5.156-8.312 8.938C101 193 101 193 98 194c-2.187-.437-2.187-.437-4-1v-1h2.75c3.285-.646 3.285-.646 4.54-2.848A77 77 0 0 0 104 183h2v-2c2.463-1.231 4.28-1.072 7-1"/><path fill="#ed977c" d="M492 116c2.962.613 4.38 1.254 7 3l-7 2 .188 2.125c-.23 3.528-1.48 5.815-3.188 8.875-1.169-2.922-.93-4.297-.187-7.437.969-2.909 1.99-5.742 3.187-8.563"/><path fill="#e7bead" d="m302 243 3 1.375c3.921 1.692 7.84 2.676 12 3.625-3.737 2.492-5.573 2.458-10 2-2.937-1.812-2.937-1.812-5-4z"/><path fill="#d26539" d="M396 199h1l1 11-2 1-2 3v-6l-3 2c1.222-4.043 2.628-7.493 5-11"/><path fill="#a5362b" d="M493 148h1c.38 5.066-.281 9.658-3 14-3.187 1.5-3.187 1.5-6 2v-3l2.313-1.625c3.674-3.247 4.467-6.733 5.687-11.375"/><path fill="#e98047" d="M314 136c2.621 0 4.51.313 7 1l-1.312 1.434c-3.474 4.087-3.474 4.087-5.086 9.101.02 2.184.127 4.299.398 6.465l-2-1v-10l3-1z"/><path fill="#cd5f2c" d="M392 127c1.938.375 1.938.375 4 1l1 2-1.773.094c-2.544.785-2.544.785-4.079 3.812a178 178 0 0 0-1.773 3.594c-3.145 6.385-3.145 6.385-5.375 7.5 1.494-4.98 3.62-9.406 6-14a1410 1410 0 0 0 2-4"/><path fill="#e6771f" d="m131 179 3 2-4 1zm-3 3 2 1c-2.164 2.568-4.324 4.96-7 7-3.437-.062-3.437-.062-6-1l-1-3h2v2c4.43-1.208 6.981-2.517 10-6"/><path fill="#f9c1a4" d="m526 160 1 3h-3l.07 1.828.055 2.422.07 2.39c-.212 2.567-.908 4.152-2.195 6.36h-2c.23-1.92.484-3.835.75-5.75l.422-3.234c.938-3.416 2.147-4.771 4.828-7.016"/><path fill="#e76739" d="M532 160h2v3l3.25-1.562c2.465-1.07 3.471-1.474 6.188-1.125L545 161v2q-2.843.254-5.687.5l-3.2.281A95 95 0 0 1 528 164a91 91 0 0 1 4-4"/><path fill="#f5b67a" d="m330 119 4 2q-1.935 1.722-3.875 3.438l-2.18 1.933C326 128 326 128 324 129l-1-3z"/><path fill="#d76a4c" d="m342 233 2 1c-.954 3.816-1.666 5.698-4.625 8.375L337 244l-2-1 3-6h2v-3z"/><path fill="#e48522" d="M163.563 176.188 167 177l2 3-9-1-3 8c-1.574-3.149-.719-5.645 0-9 3-2 3-2 6.563-1.812"/><path fill="#f2c547" d="m140.625 120.938 3.602.027L147 121v2l-17 1c3.456-3.456 5.845-3.11 10.625-3.062"/><path fill="#cd461b" d="M269 196c1.245 3.734.59 6.13 0 10-.036 2-.049 4 0 6l-2-1v-4c-1.917-2.25-1.917-2.25-4-4l1.875-.125L267 202c1.305-2.996 1.305-2.996 2-6"/><path fill="#eb8459" d="m535 180 2 2c-.375 2.625-.375 2.625-1 5l-6 1 .188 2.813L530 194l-3 3 2-10 4-1v-2h2z"/><path fill="#ef804b" d="m523 175 2 1c-2 3-2 3-5 4v8l-4 1 2-1-.176-2.082c-.136-2.714-.184-5.223.176-7.918 2.375-2.187 2.375-2.187 5-3"/><path fill="#f4c392" d="M345 131h1c.262 3.146.248 4.618-1.5 7.313L343 140l-5-1c1.313-2.5 1.313-2.5 3-5h3z"/><path fill="#ebb592" d="m229 218 4 2c-2.957 4.477-5.058 7.6-10 10z"/><path fill="#dd9177" d="M310 202c0 3.29-.43 4.073-2.25 6.688l-1.266 1.886L305 212h-4c.25-1.812.25-1.812 1-4 2.063-1.75 2.063-1.75 4-3l1 1z"/><path fill="#f5b494" d="m491 190 2 1-1 1.5c-1.436 3.59-1.129 6.645-1 10.5h-3c-.592-3.013-1.058-5.924-1-9 1.938-2.562 1.938-2.562 4-4"/><path fill="#f6cb9a" d="m250 178 2 1c.875 3.313.875 3.313 1 7-1.937 2.438-1.937 2.438-4 4a560 560 0 0 1-.062-4.312l-.036-2.426C249 181 249 181 250 178"/><path fill="#a83120" d="M367 124c1.145 1.746 1.145 1.746 2 4-.863 2.035-.863 2.035-2.312 4.063-1.695 2.418-2.741 4.097-3.688 6.937h-2c-.405-2.676-.335-4.445 1.078-6.785q1.335-1.807 2.73-3.567c1.394-1.754 1.394-1.754 2.192-4.648"/><path fill="#d45211" d="m242 166 3 1-2.375 2.438c-3.196 3.775-3.91 7.764-4.625 12.562h-1c-.454-6.466.376-9.62 4-15z"/><path fill="#da8e77" d="m305 224 4 1-.105 2.992-.082 3.883-.106 3.867L309 239l3 2-5-1v-12h-3z"/><path fill="#e68c41" d="m198 214 3 1c.914 2.617.914 2.617 1.625 5.875 1.032 4.605 1.032 4.605 2.375 9.125l-3-1c-.95-2.504-.95-2.504-1.687-5.562l-.762-3.067L199 218l-2 1z"/><path fill="#ecc5b8" d="m482 180 1 2-1 2 3-1-1 10-2-1c-.45-2.469-.45-2.469-.687-5.5l-.262-3.031L481 181z"/><path fill="#f2d95e" d="M77 133h4l-2 5 2 1-6 3-2-2 4-1z"/><path fill="#9e3224" d="m443 210 2 2-1 2 3 1v2l9 2v2c-7.152-.364-7.152-.364-11-3.25-2-2.75-2-2.75-2.312-5.562z"/><path fill="#a12f22" d="M447 181c1.192 3.463.807 5.653-.25 9.125l-.766 2.633C445 195 445 195 442 197q.676-3.159 1.375-6.312l.773-3.551C445 184 445 184 447 181"/><path fill="#a8200d" d="m348 199 2 2c.367 4.483.517 6.966-1.5 11l-1.5 2c-1.504-3.008-.608-5.35-.062-8.625l.59-3.602z"/><path fill="#f4e5b5" d="M126 180h4v2c-3 2-3 2-5.48 1.977l-2.707-.352-2.731-.336L117 183l1-2 3.438.063L125 181z"/><path fill="#f6cfa4" d="M238 167h3l-.93 1.672c-1.164 2.533-1.69 4.84-2.195 7.578l-.508 2.703L237 181h-1c-1.435-7.935-1.435-7.935.25-12.062z"/><path fill="#ec9551" d="M240 131h1c.193 4.824-.243 8.496-2 13h-2q.462-2.97.938-5.937l.527-3.34C239 132 239 132 240 131"/><path fill="#eb9531" d="M227 125h2c-1.364 2.992-2.95 5.29-5.125 7.75l-1.633 1.86L221 136l-1-3c1.363-2.043 1.363-2.043 3.313-4.187l1.925-2.168z"/><path fill="#f2dd45" d="m91 131 2 1Zm0 1c-1.583 4.274-4.506 6.265-8 9l-2-2a640 640 0 0 1 3.875-3.5l2.18-1.969C89 132 89 132 91 132"/><path fill="#e7ab86" d="M234 204c1 2 1 2 .313 5-1.313 3-1.313 3-3.313 4.313l-2 .687-2 1c1.875-4.75 1.875-4.75 3-7h2z"/><path fill="#e6a477" d="m370 187 3 1c.25 2.188.25 2.188 0 5-2 2.813-2 2.813-4 5z"/><path fill="#e9b86f" d="m101 238 1 3h2v12h-1c-1.263-5.075-2.27-9.728-2-15"/><path fill="#e6bbaa" d="m299 226 2 2 2-2 1 3-2 2c-.167 2.584-.167 2.584 0 5h-2v-4h-2z"/><path fill="#d05324" d="m288 166 3 1-2.75 1.75c-2.77 1.918-4.97 3.794-7.25 6.25l-2-1c2.624-3.596 4.92-6.117 9-8"/><path fill="#ecaf94" d="m438 166 4 1 2 7-3 2-.148-1.934-.227-2.504c-.07-.823-.14-1.647-.21-2.496L440 167z"/><path fill="#e4956a" d="M410 144h10v3c-5.75 1.125-5.75 1.125-8 0v-2z"/><path fill="#efb39c" d="m509 214 2 1c-1.75 3.875-1.75 3.875-4 5-2 .04-4 .043-6 0l1.75-.75c2.55-1.417 4.268-3.126 6.25-5.25"/><path fill="#ef9c7e" d="M545 205h2c-1.199 3.083-2.477 6.063-4 9h-2c.645-3.483 1.982-6.094 4-9"/><path fill="#e5866e" d="m440 194 3 1c-.31.68-.619 1.361-.937 2.063-1.197 3.307-1.653 6.452-2.063 9.937h-1c-1.429-8.429-1.429-8.429 1-13"/><path fill="#efb27f" d="m223 174 2 1-6 9-1-2c1.055-3.428 2.283-5.654 5-8"/><path fill="#eeb78c" d="m231 162 1 2c-.996 1.945-.996 1.945-2.437 4.125l-1.434 2.195L227 172l-2-1c1.527-3.436 3.6-6.12 6-9"/><path fill="#f8e498" d="m155 180 2 2c-.25 3-.25 3-1 6l-2 2c-.977-6.055-.977-6.055-1-8z"/><path fill="#db9e8a" d="m566 173 2 3-5 4-4-2 2.938-1.937c2.822-1.76 2.822-1.76 4.062-3.063"/><path fill="#f9f2da" d="m138 173 4 2-9 4c2-4 2-4 5-6"/><path fill="#f1d330" d="M117 119c-6.5 4-6.5 4-11 4v-2c1.266-.532 2.538-1.05 3.813-1.562l2.144-.88C114 118 114 118 117 119"/><path fill="#e38b3c" d="M111 205c.862 2.413 1.087 3.695.375 6.188C110 213 110 213 107.375 213.75L105 214c.25-1.875.25-1.875 1-4a90 90 0 0 1 4-2z"/><path fill="#f1be61" d="M100 209h1l-1 8h-3c1.875-6.875 1.875-6.875 3-8"/><path fill="#d86745" d="M557 179h6v2l-6 3z"/><path fill="#ea7e4e" d="M334 178h4v2l4 1v2h-4v-2l-4-1z"/><path fill="#e88041" d="m250 160 2 1c-4.395 3.906-4.395 3.906-6 5h-3v-2h3v-2c1.875-1.062 1.875-1.062 4-2"/><path fill="#f1dd70" d="m69 147 2 1v5l-6-1 1-3 3 1z"/><path fill="#a42c1b" d="m416 202 2 1q-1.426 2.007-2.875 4l-1.617 2.25L412 211h-2c1.527-3.436 3.6-6.12 6-9"/><path fill="#a2281e" d="M491 157v5l-6 2v-3c4.457-4 4.457-4 6-4"/><path fill="#ef9a7e" d="m517 139 5 1v3h-5z"/><path fill="#edad5d" d="M137 176c2.313.25 2.313.25 4 1-2.36 2.097-3.546 2.97-6.75 3.188L132 180c2.25-2.062 2.25-2.062 5-4"/><path fill="#ebae9a" d="m342 239 1 3-5 3v-3c2-1.687 2-1.687 4-3"/><path fill="#c1330d" d="m273 183 2 2c-.187 2.063-.187 2.063-1 4l-3 1c.875-4.75.875-4.75 2-7"/><path fill="#e4b06b" d="M92 185a100 100 0 0 1 5 0l-2 4v-2l-5 3c.875-3.875.875-3.875 2-5"/><path fill="#e6801a" d="M117 176h1c.393 4.449-.847 7.142-3 11-1-3-1-3-.441-5.043l.879-2.144.87-2.168z"/><path fill="#eac4ba" d="M485 173h2l-1 7h-2z"/><path fill="#ecc697" d="M135 173v3c-2 2.188-2 2.188-4 4l-3-1z"/><path fill="#f39b65" d="m333 156 3 1 1 8-3-2 1-4h-2z"/><path fill="#f4af75" d="M315 155c1.523 2.937 2.801 5.917 4 9l-2 1-3-9z"/><path fill="#f3c750" d="M142 114c3.375.547 5.082 1.055 8 3-1.875 1.063-1.875 1.063-4 2l-2-1v-3z"/><path fill="#c13216" d="m342 233 2 1-2 5h-2v-5z"/><path fill="#f2e1da" d="M310 218v7l-4 1c1.75-5.75 1.75-5.75 4-8"/><path fill="#e36f4f" d="m401 215 2 1v4h7v1h-8l-2-5z"/><path fill="#e6c1b5" d="m318 201 1 3-1 2-2-1zm-4 6 1 3-3-1z"/><path fill="#e79b6c" d="M378 196h1v7h2l-2 4h-1z"/><path fill="#e8a172" d="m384 182 1 2c-.606 2.02-1.27 4.023-2 6l-2-3c.25-2.125.25-2.125 1-4z"/><path fill="#f4d387" d="m158 173 2 1v3l-2 1c-1.134 2.017-1.134 2.017-2 4-.125-3.375-.125-3.375 0-7z"/><path fill="#eacabf" d="M488 162h2a109 109 0 0 1-1 7l-2 1z"/><path fill="#dc7c5f" d="M545 161v2h-7v-2c3.133-1.044 3.99-.934 7 0"/><path fill="#eaa086" d="M503 128h3l-1 5-4 1z"/><path fill="#efaf36" d="M148 121c2.972 1.125 5.334 2.223 8 4l-1 2-7-4z"/><path fill="#e9c6b6" d="m309 200 3 2-6 5c.75-4.75.75-4.75 3-7"/><path fill="#95211a" d="M503 163h4v2l-1.875.875c-2.258 1.062-2.258 1.062-4.125 3.125.875-4.875.875-4.875 2-6"/><path fill="#f39473" d="M528 219h8c-2.62 1.746-4.038 2.387-7 3z"/><path fill="#f2b198" d="M345 204h1v6l-3-1c.875-3.875.875-3.875 2-5"/><path fill="#e3640e" d="m186 177 2 1a78 78 0 0 1-2 5l-2 1c.875-5.875.875-5.875 2-7"/><path fill="#f8eeaf" d="m185 174 5 1-1.937.375L186 176l-1 2z"/><path fill="#dd9886" d="M377 140v2c-3.473 1.158-6.36 1.069-10 1v-1c3.62-1.316 6.096-2 10-2"/><path fill="#e9b542" d="M77 133h4c-1.75 3.875-1.75 3.875-4 5z"/><path fill="#eebf81" d="m238 129 1 2-5 5c.313-2.375.313-2.375 1-5z"/><path fill="#f2c696" d="m234 243 5 1-2 2h-4z"/><path fill="#db8269" d="m305 224 4 1-1 3h-4z"/><path fill="#e0967c" d="m481 224 4 1v3h-5z"/><path fill="#a31f0c" d="m408 216 4 3-5 1z"/><path fill="#e17b27" d="m97 202 4 1-1 5-1-4h-2z"/><path fill="#eeb96c" d="M207 167c.981 3.053.981 4.947 0 8l-2-3c.875-2.687.875-2.687 2-5"/><path fill="#f5ba85" d="M238 167h3a56.5 56.5 0 0 1-4 7z"/><path fill="#eb8417" d="M93 187h2l-1 5-3-1z"/><path fill="#ea8060" d="m494 117 5 1c-2.647 1.46-3.894 2-7 2z"/><path fill="#f1976a" d="M529 196h1v6h-3z"/><path fill="#f1d5a1" d="m136 190 3 1v2l-3 1v-2l-2-1z"/><path fill="#edb782" d="M143 170h3c-1.75 3.875-1.75 3.875-4 5z"/><path fill="#f6b39a" d="M504 117c1 3 1 3 1 6h-2c-.625-1.875-.625-1.875-1-4z"/><path fill="#f6eca8" d="m111 210 3 2-4 2z"/><path fill="#f2af99" d="m440 194 3 1-4 4z"/><path fill="#f49d7a" d="M342 193h2v5l-1-2h-2z"/><path fill="#e58242" d="m383 146 1 3-3 3c.875-4.875.875-4.875 2-6"/><path fill="#eda266" d="M236 144h3l-1 3-3 1z"/><path fill="#eed11c" d="M92 144h2c-1.75 3.875-1.75 3.875-4 5z"/><path fill="#9d170a" d="m367 124 2 4-4 2z"/><path fill="#9c2a1a" d="m502 123 3 1-1 4c-2-3-2-3-2-5"/><path fill="#d1592d" d="m271 218 5 2-4 1z"/><path fill="#f1bc68" d="M171 202h3l-2 4z"/><path fill="#9d2f1e" d="M554 192h3v3h-3z"/><path fill="#f9ee8c" d="m99 188 1 4h-3z"/><path fill="#f3dfb8" d="m138 173 4 2-4 1z"/><path fill="#e25f14" d="m242 166 3 1-4 3z"/><path fill="#efc49f" d="m231 162 1 2-3 3v-3z"/><path fill="#ef844c" d="m332 152 1 4h-3z"/><path fill="#f4ab8f" d="m492 116 3 1-2 3-2-1z"/><path fill="#eeb6a5" d="m342 239 1 3h-3v-2z"/><path fill="#da876f" d="M297 234h2l1 3h-3z"/><path fill="#d88771" d="m302 226 2 3-3 2z"/><path fill="#edcdc1" d="m303 223 2 3-2 2c-.562-1.937-.562-1.937-1-4z"/><path fill="#921d17" d="m399 209 2 2-1 2h-2z"/><path fill="#e4a695" d="m547 198 3 2-3 2-1-2z"/><path fill="#e2b082" d="M130 177h2l-1 3-3-1z"/><path fill="#f0915d" d="m331 175 3 1-1 2h-3z"/><path fill="#e2b2a5" d="m566 173 2 3-2 1-2-2z"/><path fill="#dc7f62" d="m547 162 2 3h-4l2-1z"/><path fill="#ee8a42" d="m227 164 1 3h-3v-2z"/><path fill="#f2a070" d="m333 156 3 1v2h-3z"/><path fill="#f7df90" d="m228 121 3 1-3 3z"/><path fill="#edd7cd" d="m318 201 1 3h-3z"/><path fill="#ee9c64" d="M224 171h2l-1 3h-2z"/><path fill="#f4da67" d="M120 125h2l-1 3h-2z"/><path fill="#f0bfa4" d="m266 206 2 2-2 2-1-3z"/></svg>